<svg id="Layer_5" enable-background="new 0 0 64 64" height="512" viewBox="0 0 64 64" width="512" xmlns="http://www.w3.org/2000/svg"><g><path d="m60 23h-11v-9c0-1.654-1.346-3-3-3h-17c0-1.744-1.128-3.214-2.688-3.761.434-.639.688-1.41.688-2.239 0-2.206-1.794-4-4-4h-18c-2.206 0-4 1.794-4 4 0 1.744 1.128 3.214 2.688 3.761-.434.639-.688 1.41-.688 2.239s.254 1.6.688 2.239c-1.56.547-2.688 2.017-2.688 3.761s1.128 3.214 2.688 3.761c-.434.639-.688 1.41-.688 2.239s.254 1.6.688 2.239c-1.56.547-2.688 2.017-2.688 3.761s1.128 3.214 2.688 3.761c-.434.639-.688 1.41-.688 2.239s.254 1.6.688 2.239c-1.56.547-2.688 2.017-2.688 3.761s1.128 3.214 2.688 3.761c-.434.639-.688 1.41-.688 2.239 0 2.206 1.794 4 4 4h15 2 9v9c0 1.654 1.346 3 3 3h24c1.654 0 3-1.346 3-3v-34c0-1.654-1.346-3-3-3zm-33-12h-4v-2h2c1.103 0 2 .897 2 2zm-22 24c0-1.103.897-2 2-2h2v4h-2c-1.103 0-2-.897-2-2zm0-12c0-1.103.897-2 2-2h2v4h-2c-1.103 0-2-.897-2-2zm0-12c0-1.103.897-2 2-2h2v4h-2c-1.103 0-2-.897-2-2zm10-4v-4h4v4zm4 36h-4v-4h4zm-4-10v4h-4v-4zm4 4h-2v-4h2zm0-6h-4v-4h4zm-4-10v4h-4v-4zm4 4h-2v-4h2zm0-6h-4v-4h4zm-8-6v-4h4v4zm2-6h-4v-4h4zm0 8v4h-4v-4zm0 12v4h-4v-4zm0 12v4h-4v-4zm2 6v4h-4v-4zm2 0h2v3c0 .352.072.686.184 1h-2.184zm2.184-32h-2.184v-4h4v2.184c-.847.302-1.514.969-1.816 1.816zm5.816-8c0 1.103-.897 2-2 2h-2v-4h2c1.103 0 2 .897 2 2zm-22 0c0-1.103.897-2 2-2h2v4h-2c-1.103 0-2-.897-2-2zm0 12c0-1.103.897-2 2-2h2v4h-2c-1.103 0-2-.897-2-2zm0 12c0-1.103.897-2 2-2h2v4h-2c-1.103 0-2-.897-2-2zm0 12c0-1.103.897-2 2-2h2v4h-2c-1.103 0-2-.897-2-2zm2 6c0-1.103.897-2 2-2h2v4h-2c-1.103 0-2-.897-2-2zm19 2h-2c-.552 0-1-.449-1-1v-34c0-.551.448-1 1-1h24c.552 0 1 .449 1 1v9h-2v-8h-22v32h10v2zm9-15.135-3.134-2.612c-.551-.459-.866-1.132-.866-1.848 0-1.326 1.079-2.405 2.405-2.405h.185c.507 0 1.001.171 1.41.467zm.097-8.586c-.478-.174-.983-.279-1.507-.279h-.185c-2.428 0-4.405 1.976-4.405 4.405 0 1.311.578 2.544 1.585 3.384l4.415 3.68v8.531h-8v-28h18v6h-7c-1.405 0-2.578.974-2.903 2.279zm27.903 34.721c0 .551-.448 1-1 1h-24c-.552 0-1-.449-1-1v-34c0-.551.448-1 1-1h24c.552 0 1 .449 1 1z"/><path d="m37 59h22v-32h-22zm2-30h18v28h-18z"/><path d="m48 34.698-5.415 4.513c-1.007.839-1.585 2.073-1.585 3.384 0 2.429 1.977 4.405 4.405 4.405h.185c.49 0 .964-.087 1.41-.235v4.235h2v-4.239c.449.152.922.239 1.41.239h.185c2.428 0 4.405-1.976 4.405-4.405 0-1.311-.578-2.544-1.585-3.384zm2.595 10.302h-.185c-.633 0-1.252-.257-1.767-.766l-.708-.585-.646.646c-.447.448-1.066.705-1.699.705h-.185c-1.326 0-2.405-1.079-2.405-2.405 0-.716.315-1.389.866-1.848l4.134-3.445 4.134 3.445c.551.459.866 1.132.866 1.848 0 1.326-1.079 2.405-2.405 2.405z"/><path d="m41 31h2v2h-2z"/><path d="m53 53h2v2h-2z"/><path d="m39 19h2v2h-2z"/><path d="m27 41h2v2h-2z"/></g></svg>