<svg id="Capa_1" enable-background="new 0 0 512.009 512.009" height="512" viewBox="0 0 512.009 512.009" width="512" xmlns="http://www.w3.org/2000/svg"><g><path d="m511.597 101.074-90.41 379.38c-1.92 8.05-10.01 13.03-18.07 11.11l-131.36-31.3-16.2-3.86c-8.06-1.92-13.04-10.01-11.12-18.07l25.37-394.88c1.92-8.06 10.01-13.03 18.07-11.11l81.32 19.38 131.29 31.28c8.06 1.92 13.03 10.01 11.11 18.07z" fill="#596c76"/><path d="m511.597 101.074-90.41 379.38c-1.92 8.05-10.01 13.03-18.07 11.11l-131.36-31.3 97.44-408.54 131.29 31.28c8.06 1.92 13.03 10.01 11.11 18.07z" fill="#3b4a51"/><path d="m408.027 276.874c-8 33.51-22.53 64.51-40.92 87.28-5.19 6.42-14.63 7.46-21.09 2.24l-25.99-108.51v-.01l-26.61-111.14c-5.03-6.58-3.78-15.99 2.8-21.02 19.37-14.82 39.8-20.22 59.06-15.63 49.09 11.71 72.26 84.97 52.75 166.79z" fill="#76e2f8"/><path d="m408.027 276.874c-8 33.51-22.53 64.51-40.92 87.28-5.19 6.42-14.63 7.46-21.09 2.24l-25.99-108.52 35.25-147.79c49.09 11.71 72.26 84.97 52.75 166.79z" fill="#66c0ee"/><g><g><path d="m228.022 61.614c-8.059-1.92-13.035-10.01-11.114-18.068l2.863-12.014c1.918-8.05 10.005-13.035 18.069-11.115l24.202 5.768c8.059 1.921 13.034 10.01 11.114 18.069-2.558 10.725-45.034 17.384-45.134 17.36z" fill="#596c76"/></g></g><g><path d="m380.417 412.904-87.71-380.01c-1.86-8.07-9.92-13.1-17.99-11.24l-131.54 30.36-131.54 30.36c-8.08 1.86-13.11 9.92-11.25 17.99l87.71 380.01c1.87 8.07 9.92 13.11 17.99 11.24l131.54-30.36 131.55-30.36c8.07-1.86 13.1-9.92 11.24-17.99z" fill="#f0f7ff"/></g><path d="m369.177 430.894-131.55 30.36-94.45-409.24 131.54-30.36c8.07-1.86 16.13 3.17 17.99 11.24l87.71 380.01c1.86 8.07-3.17 16.13-11.24 17.99z" fill="#dfe7f4"/><g><g><path d="m258.987 220.284c-6.45-27.95-29.51-49.64-56.22-43.48-12.06 2.79-20.84 9.75-26.82 17.21-8.64-4.08-19.58-6.5-31.64-3.71-26.5 6.12-37.98 35.57-31.48 63.71 4.46 19.31 21.63 54.79 86.53 75.38 2.6.83 5.33.91 7.91.32 2.57-.59 4.99-1.86 6.97-3.75 49.32-46.96 49.2-86.37 44.75-105.68z" fill="#ff7d43"/></g></g><path d="m214.237 325.964c-1.98 1.89-4.4 3.16-6.97 3.75l-31.32-135.7c5.98-7.46 14.76-14.42 26.82-17.21 26.71-6.16 49.77 15.53 56.22 43.48 4.45 19.31 4.57 58.72-44.75 105.68z" fill="#e63950"/><g><path d="m79.094 174.565-6.747-29.232c-1.863-8.072 3.17-16.126 11.242-17.989 8.073-1.864 16.126 3.17 17.989 11.242l6.747 29.232c1.863 8.072-3.17 16.126-11.242 17.989-8.091 1.867-16.13-3.189-17.989-11.242z" fill="#ff7d43"/></g><g><g><g><path d="m279.227 374.682-6.748-29.231c-1.863-8.072 3.17-16.126 11.243-17.989 8.063-1.863 16.126 3.17 17.989 11.242l6.746 29.231c1.863 8.072-3.17 16.126-11.241 17.989-8.089 1.868-16.13-3.185-17.989-11.242z" fill="#e63950"/></g></g></g></g></svg>