<?xml version="1.0" encoding="iso-8859-1"?>
<!-- Generator: Adobe Illustrator 16.0.0, SVG Export Plug-In . SVG Version: 6.00 Build 0)  -->
<!DOCTYPE svg PUBLIC "-//W3C//DTD SVG 1.1//EN" "http://www.w3.org/Graphics/SVG/1.1/DTD/svg11.dtd">
<svg version="1.1" id="Capa_1" xmlns="http://www.w3.org/2000/svg" xmlns:xlink="http://www.w3.org/1999/xlink" x="0px" y="0px"
	 width="473.968px" height="473.968px" viewBox="0 0 473.968 473.968" style="enable-background:new 0 0 473.968 473.968;"
	 xml:space="preserve">
<g>
	<g>
		<g>
			<path d="M348.504,423.227c4.546,0,8.962-5.177,11.711-5.177c3.051,0,7.332,5.11,11.888,5.11c6.766,0,11.012-5.935,11.012-13.343
				c0-12.053-17.247-24.283-22.898-24.283c-4.937,0-22.897,12.23-22.897,24.283C337.318,417.226,341.724,423.227,348.504,423.227z"
				/>
		</g>
	</g>
	<g>
		<path d="M125.226,51.439c-4.543,0-8.947,5.173-11.703,5.173c-3.047,0-7.331-5.107-11.887-5.107
			c-6.77,0-11.015,5.937-11.015,13.342c0,12.052,17.251,24.285,22.902,24.285c4.935,0,22.892-12.233,22.892-24.285
			C136.414,57.442,131.999,51.439,125.226,51.439z"/>
		<path d="M380.37,0H93.598c-21.841,0-39.61,17.769-39.61,39.61v394.748c0,21.841,17.769,39.609,39.61,39.609H380.37
			c21.841,0,39.61-17.769,39.61-39.609V39.61C419.979,17.769,402.209,0,380.37,0z M407.979,434.358
			c0,15.224-12.387,27.609-27.61,27.609H93.598c-15.224,0-27.61-12.386-27.61-27.609V39.61c0-15.224,12.386-27.61,27.61-27.61
			H380.37c15.224,0,27.61,12.386,27.61,27.61L407.979,434.358L407.979,434.358z"/>
		<path d="M280.893,160.309c-11.376,0-22.001,6.921-30.54,12.482c-4.982,3.246-10.631,6.925-13.371,6.925
			c-3.396,0-9.139-3.662-14.692-7.204c-8.781-5.6-18.734-11.947-29.878-11.947c-27.411,0-47.305,23.565-47.305,56.033
			c0,48.792,67.552,97.064,91.876,97.064c11.704,0,34.366-12.663,53.885-30.107c14.188-12.681,37.988-38.238,37.988-66.957
			C328.856,183.982,308.684,160.309,280.893,160.309z M282.872,274.607c-19.753,17.652-39.342,27.056-45.889,27.056
			c-8.249,0-28.509-10.331-46.857-27.021c-20.984-19.088-33.019-40.244-33.019-58.044c0-25.926,14.518-44.033,35.305-44.033
			c7.644,0,15.667,5.117,23.426,10.065c7.327,4.672,14.248,9.086,21.145,9.086c6.303,0,12.613-4.11,19.92-8.87
			c7.583-4.939,16.178-10.537,23.99-10.537c20.838,0,35.963,18.626,35.963,44.289C316.856,240.645,295.564,263.264,282.872,274.607z
			"/>
	</g>
</g>
<g>
</g>
<g>
</g>
<g>
</g>
<g>
</g>
<g>
</g>
<g>
</g>
<g>
</g>
<g>
</g>
<g>
</g>
<g>
</g>
<g>
</g>
<g>
</g>
<g>
</g>
<g>
</g>
<g>
</g>
</svg>
