<svg height="454pt" viewBox="0 0 454 454.08341" width="454pt" xmlns="http://www.w3.org/2000/svg"><path d="m227.160156 454.082031c91.796875 0 174.558594-55.296875 209.6875-140.105469 35.128906-84.8125 15.710938-182.433593-49.199218-247.34375-88.609376-88.78125-232.433594-88.851562-321.128907-.15625-88.699219 88.695313-88.628906 232.519532.15625 321.128907 42.46875 42.703125 100.257813 66.640625 160.484375 66.476562zm-156.691406-218.960937c1.816406 36.042968 16.054688 70.347656 40.289062 97.085937l-38.242187 38.242188c-34.34375-36.914063-54.273437-84.945313-56.148437-135.328125zm51.605469 108.402344c26.738281 24.234374 61.042969 38.46875 97.085937 40.289062v54.097656c-50.386718-1.878906-98.414062-21.808594-135.328125-56.152344zm113.085937 40.289062c36.273438-1.832031 70.777344-16.234375 97.582032-40.738281l38.238281 38.234375c-36.976563 34.617187-85.207031 54.71875-135.820313 56.605468zm108.84375-52.105469c23.972656-26.667969 38.042969-60.773437 39.847656-96.585937h54.101563c-1.867187 50.15625-21.628906 97.988281-55.699219 134.839844zm39.847656-112.585937c-1.816406-36.042969-16.054687-70.347656-40.292968-97.085938l38.246094-38.246094c34.347656 36.914063 54.277343 84.945313 56.15625 135.332032zm-51.605468-108.398438c-26.738282-24.238281-61.042969-38.476562-97.085938-40.296875v-54.105469c50.386719 1.878907 98.417969 21.808594 135.332032 56.152344zm-113.085938-40.296875c-35.816406 1.808594-69.917968 15.878907-96.585937 39.851563l-38.253907-38.253906c36.851563-34.074219 84.683594-53.832032 134.839844-55.703126zm8 15.800781c77.691406-.003906 140.898438 63.203126 140.898438 140.894532s-63.207032 140.894531-140.898438 140.894531-140.902344-63.199219-140.902344-140.894531c0-77.695313 63.214844-140.898438 140.902344-140.898438zm-154.1875-2.925781 38.234375 38.238281c-24.503906 26.804688-38.910156 61.308594-40.738281 97.582032h-54.097656c1.882812-50.613282 21.984375-98.84375 56.601562-135.820313zm0 0"/><path d="m185.058594 277.300781c8.558594.015625 16.941406-2.394531 24.183594-6.957031.523437 2.667969.765624 5.382812.714843 8.101562 0 9.289063-4.039062 19.210938-15.378906 19.210938-4.546875 0-8.230469 3.683594-8.230469 8.230469s3.683594 8.230469 8.230469 8.230469h65.15625c4.539063 0 8.222656-3.679688 8.222656-8.21875 0-4.542969-3.683593-8.222657-8.222656-8.222657-11.339844 0-15.378906-9.929687-15.378906-19.222656-.050781-2.71875.191406-5.4375.71875-8.109375 16.03125 10.050781 36.613281 9.136719 51.691406-2.296875s21.511719-31.003906 16.160156-49.15625c-5.351562-18.152344-21.371093-31.101563-40.242187-32.527344 0-.121093 0-.246093 0-.367187 0-25.148438-20.382813-45.53125-45.53125-45.53125-25.144532 0-45.527344 20.382812-45.527344 45.53125v.367187c-24.414062 1.84375-43 22.65625-42.074219 47.121094.921875 24.460937 21.023438 43.816406 45.503907 43.8125zm0-75.0625c1.46875 0 2.9375.109375 4.390625.328125 2.628906.390625 5.277343-.542968 7.074219-2.5 1.796874-1.953125 2.507812-4.671875 1.894531-7.257812-2.808594-11.875 1.972656-24.253906 12.039062-31.15625 10.0625-6.902344 23.335938-6.902344 33.398438 0 10.066406 6.902344 14.847656 19.28125 12.039062 31.15625-.613281 2.585937.097657 5.304687 1.894531 7.257812 1.796876 1.957032 4.445313 2.890625 7.074219 2.5 10.953125-1.648437 21.90625 2.972656 28.371094 11.96875 6.460937 8.996094 7.351563 20.851563 2.296875 30.707032-5.050781 9.855468-15.195312 16.054687-26.273438 16.058593-7.71875.011719-15.132812-3.015625-20.632812-8.433593-2.847656-2.78125-7.308594-3.050782-10.464844-.628907-1.511718 1.160157-2.859375 2.511719-4.011718 4.027344-3.945313 5.191406-5.785157 12.242187-5.785157 22.191406-.121093 6.847657 1.5 13.617188 4.714844 19.664063h-11.847656c3.222656-6.050782 4.847656-12.820313 4.730469-19.671875 0-9.949219-1.839844-17-5.789063-22.191407-1.152344-1.511718-2.5-2.863281-4.007813-4.019531-3.160156-2.425781-7.621093-2.15625-10.464843.628907-9.523438 9.316406-24.105469 11.097656-35.59375 4.351562s-17.035157-20.351562-13.535157-33.207031c3.496094-12.851563 15.167969-21.773438 28.488282-21.773438zm0 0"/></svg>