<svg width="452" height="86" viewBox="0 0 452 86" fill="none" xmlns="http://www.w3.org/2000/svg">
<path d="M114.72 64.288C113.792 64.288 113.04 64.016 112.464 63.472C111.92 62.896 111.648 62.128 111.648 61.168V33.088C111.648 32.16 111.904 31.44 112.416 30.928C112.96 30.416 113.696 30.16 114.624 30.16H126.432C130.048 30.16 132.864 31.072 134.88 32.896C136.896 34.688 137.904 37.216 137.904 40.48C137.904 43.744 136.896 46.288 134.88 48.112C132.864 49.936 130.048 50.848 126.432 50.848H117.84V61.168C117.84 62.128 117.552 62.896 116.976 63.472C116.432 64.016 115.68 64.288 114.72 64.288ZM125.664 46.096C129.92 46.096 132.048 44.24 132.048 40.528C132.048 36.816 129.92 34.96 125.664 34.96H117.84V46.096H125.664ZM145.784 64.288C144.92 64.288 144.2 64.048 143.624 63.568C143.08 63.056 142.808 62.336 142.808 61.408V32.752C142.808 31.824 143.08 31.12 143.624 30.64C144.2 30.16 144.92 29.92 145.784 29.92C146.648 29.92 147.368 30.16 147.944 30.64C148.52 31.12 148.808 31.824 148.808 32.752V61.408C148.808 62.336 148.52 63.056 147.944 63.568C147.368 64.048 146.648 64.288 145.784 64.288ZM165.171 39.952C168.435 39.952 170.851 40.768 172.419 42.4C174.019 44 174.819 46.448 174.819 49.744V61.456C174.819 62.32 174.563 63.008 174.051 63.52C173.539 64 172.835 64.24 171.939 64.24C171.107 64.24 170.419 63.984 169.875 63.472C169.363 62.96 169.107 62.288 169.107 61.456V60.4C168.563 61.648 167.699 62.624 166.515 63.328C165.363 64.032 164.019 64.384 162.483 64.384C160.915 64.384 159.491 64.064 158.211 63.424C156.931 62.784 155.923 61.904 155.187 60.784C154.451 59.664 154.083 58.416 154.083 57.04C154.083 55.312 154.515 53.952 155.379 52.96C156.275 51.968 157.715 51.248 159.699 50.8C161.683 50.352 164.419 50.128 167.907 50.128H169.107V49.024C169.107 47.456 168.771 46.32 168.099 45.616C167.427 44.88 166.339 44.512 164.835 44.512C163.907 44.512 162.963 44.656 162.003 44.944C161.043 45.2 159.907 45.584 158.595 46.096C157.763 46.512 157.155 46.72 156.771 46.72C156.195 46.72 155.715 46.512 155.331 46.096C154.979 45.68 154.803 45.136 154.803 44.464C154.803 43.92 154.931 43.456 155.187 43.072C155.475 42.656 155.939 42.272 156.579 41.92C157.699 41.312 159.027 40.832 160.563 40.48C162.131 40.128 163.667 39.952 165.171 39.952ZM163.683 60.064C165.283 60.064 166.579 59.536 167.571 58.48C168.595 57.392 169.107 56 169.107 54.304V53.296H168.243C166.099 53.296 164.435 53.392 163.251 53.584C162.067 53.776 161.219 54.112 160.707 54.592C160.195 55.072 159.939 55.728 159.939 56.56C159.939 57.584 160.291 58.432 160.995 59.104C161.731 59.744 162.627 60.064 163.683 60.064ZM194.549 39.952C197.365 39.952 199.461 40.752 200.837 42.352C202.213 43.952 202.901 46.368 202.901 49.6V61.408C202.901 62.304 202.629 63.008 202.085 63.52C201.573 64.032 200.853 64.288 199.925 64.288C198.997 64.288 198.261 64.032 197.717 63.52C197.173 63.008 196.901 62.304 196.901 61.408V49.936C196.901 48.112 196.549 46.784 195.845 45.952C195.173 45.12 194.101 44.704 192.629 44.704C190.901 44.704 189.509 45.248 188.453 46.336C187.429 47.424 186.917 48.88 186.917 50.704V61.408C186.917 62.304 186.645 63.008 186.101 63.52C185.557 64.032 184.821 64.288 183.893 64.288C182.965 64.288 182.229 64.032 181.685 63.52C181.173 63.008 180.917 62.304 180.917 61.408V42.832C180.917 42 181.189 41.328 181.733 40.816C182.277 40.304 183.013 40.048 183.941 40.048C184.773 40.048 185.445 40.304 185.957 40.816C186.501 41.296 186.773 41.936 186.773 42.736V44.032C187.573 42.72 188.645 41.712 189.989 41.008C191.333 40.304 192.853 39.952 194.549 39.952ZM222.627 39.952C225.443 39.952 227.539 40.752 228.915 42.352C230.291 43.952 230.979 46.368 230.979 49.6V61.408C230.979 62.304 230.707 63.008 230.163 63.52C229.651 64.032 228.931 64.288 228.003 64.288C227.075 64.288 226.339 64.032 225.795 63.52C225.251 63.008 224.979 62.304 224.979 61.408V49.936C224.979 48.112 224.627 46.784 223.923 45.952C223.251 45.12 222.179 44.704 220.707 44.704C218.979 44.704 217.587 45.248 216.531 46.336C215.507 47.424 214.995 48.88 214.995 50.704V61.408C214.995 62.304 214.723 63.008 214.179 63.52C213.635 64.032 212.899 64.288 211.971 64.288C211.043 64.288 210.307 64.032 209.763 63.52C209.251 63.008 208.995 62.304 208.995 61.408V42.832C208.995 42 209.267 41.328 209.811 40.816C210.355 40.304 211.091 40.048 212.019 40.048C212.851 40.048 213.523 40.304 214.035 40.816C214.579 41.296 214.851 41.936 214.851 42.736V44.032C215.651 42.72 216.723 41.712 218.067 41.008C219.411 40.304 220.931 39.952 222.627 39.952ZM240.049 64.288C239.185 64.288 238.465 64.048 237.889 63.568C237.345 63.056 237.073 62.336 237.073 61.408V42.88C237.073 41.952 237.345 41.248 237.889 40.768C238.465 40.288 239.185 40.048 240.049 40.048C240.913 40.048 241.633 40.288 242.209 40.768C242.785 41.248 243.073 41.952 243.073 42.88V61.408C243.073 62.336 242.785 63.056 242.209 63.568C241.633 64.048 240.913 64.288 240.049 64.288ZM240.049 35.776C238.961 35.776 238.097 35.488 237.457 34.912C236.817 34.304 236.497 33.52 236.497 32.56C236.497 31.6 236.817 30.832 237.457 30.256C238.097 29.68 238.961 29.392 240.049 29.392C241.105 29.392 241.953 29.68 242.593 30.256C243.265 30.832 243.601 31.6 243.601 32.56C243.601 33.52 243.281 34.304 242.641 34.912C242.001 35.488 241.137 35.776 240.049 35.776ZM262.893 39.952C265.709 39.952 267.805 40.752 269.181 42.352C270.557 43.952 271.245 46.368 271.245 49.6V61.408C271.245 62.304 270.973 63.008 270.429 63.52C269.917 64.032 269.197 64.288 268.269 64.288C267.341 64.288 266.605 64.032 266.061 63.52C265.517 63.008 265.245 62.304 265.245 61.408V49.936C265.245 48.112 264.893 46.784 264.189 45.952C263.517 45.12 262.445 44.704 260.973 44.704C259.245 44.704 257.853 45.248 256.797 46.336C255.773 47.424 255.261 48.88 255.261 50.704V61.408C255.261 62.304 254.989 63.008 254.445 63.52C253.901 64.032 253.165 64.288 252.237 64.288C251.309 64.288 250.573 64.032 250.029 63.52C249.517 63.008 249.261 62.304 249.261 61.408V42.832C249.261 42 249.533 41.328 250.077 40.816C250.621 40.304 251.357 40.048 252.285 40.048C253.117 40.048 253.789 40.304 254.301 40.816C254.845 41.296 255.117 41.936 255.117 42.736V44.032C255.917 42.72 256.989 41.712 258.333 41.008C259.677 40.304 261.197 39.952 262.893 39.952ZM297.211 40.048C298.107 40.048 298.827 40.304 299.371 40.816C299.915 41.328 300.187 42.016 300.187 42.88V61.84C300.187 65.52 299.163 68.304 297.115 70.192C295.067 72.08 292.043 73.024 288.043 73.024C284.555 73.024 281.643 72.368 279.307 71.056C278.123 70.352 277.531 69.504 277.531 68.512C277.531 67.808 277.691 67.248 278.011 66.832C278.363 66.416 278.811 66.208 279.355 66.208C279.643 66.208 279.995 66.272 280.411 66.4C280.827 66.56 281.259 66.736 281.707 66.928C282.859 67.408 283.883 67.776 284.779 68.032C285.707 68.288 286.763 68.416 287.947 68.416C292.139 68.416 294.235 66.368 294.235 62.272V59.2C293.531 60.512 292.507 61.536 291.163 62.272C289.819 62.976 288.283 63.328 286.555 63.328C284.507 63.328 282.683 62.848 281.083 61.888C279.515 60.896 278.283 59.52 277.387 57.76C276.491 56 276.043 53.968 276.043 51.664C276.043 49.36 276.475 47.328 277.339 45.568C278.235 43.776 279.483 42.4 281.083 41.44C282.683 40.448 284.507 39.952 286.555 39.952C288.283 39.952 289.819 40.32 291.163 41.056C292.507 41.76 293.531 42.768 294.235 44.08V42.832C294.235 42 294.507 41.328 295.051 40.816C295.595 40.304 296.315 40.048 297.211 40.048ZM288.139 58.672C290.059 58.672 291.547 58.048 292.603 56.8C293.691 55.552 294.235 53.84 294.235 51.664C294.235 49.456 293.691 47.728 292.603 46.48C291.547 45.232 290.059 44.608 288.139 44.608C286.251 44.608 284.763 45.232 283.675 46.48C282.587 47.728 282.043 49.456 282.043 51.664C282.043 53.84 282.587 55.552 283.675 56.8C284.763 58.048 286.251 58.672 288.139 58.672ZM323.033 64.288C322.105 64.288 321.353 64.016 320.777 63.472C320.233 62.896 319.961 62.128 319.961 61.168V33.088C319.961 32.16 320.217 31.44 320.729 30.928C321.273 30.416 322.009 30.16 322.937 30.16H334.745C338.361 30.16 341.177 31.072 343.193 32.896C345.209 34.688 346.217 37.216 346.217 40.48C346.217 43.744 345.209 46.288 343.193 48.112C341.177 49.936 338.361 50.848 334.745 50.848H326.153V61.168C326.153 62.128 325.865 62.896 325.289 63.472C324.745 64.016 323.993 64.288 323.033 64.288ZM333.977 46.096C338.233 46.096 340.361 44.24 340.361 40.528C340.361 36.816 338.233 34.96 333.977 34.96H326.153V46.096H333.977ZM360.98 64.384C358.58 64.384 356.468 63.888 354.644 62.896C352.852 61.904 351.46 60.48 350.468 58.624C349.476 56.768 348.98 54.608 348.98 52.144C348.98 49.68 349.476 47.536 350.468 45.712C351.46 43.856 352.852 42.432 354.644 41.44C356.468 40.448 358.58 39.952 360.98 39.952C363.38 39.952 365.476 40.448 367.268 41.44C369.092 42.432 370.484 43.856 371.444 45.712C372.436 47.536 372.932 49.68 372.932 52.144C372.932 54.608 372.436 56.768 371.444 58.624C370.484 60.48 369.092 61.904 367.268 62.896C365.476 63.888 363.38 64.384 360.98 64.384ZM360.932 59.728C362.884 59.728 364.372 59.088 365.396 57.808C366.42 56.528 366.932 54.64 366.932 52.144C366.932 49.68 366.42 47.808 365.396 46.528C364.372 45.216 362.9 44.56 360.98 44.56C359.06 44.56 357.572 45.216 356.516 46.528C355.492 47.808 354.98 49.68 354.98 52.144C354.98 54.64 355.492 56.528 356.516 57.808C357.54 59.088 359.012 59.728 360.932 59.728ZM398.766 59.344C399.406 59.952 399.726 60.64 399.726 61.408C399.726 62.144 399.454 62.8 398.91 63.376C398.398 63.952 397.79 64.24 397.086 64.24C396.382 64.24 395.726 63.952 395.118 63.376L383.886 53.2V61.408C383.886 62.336 383.598 63.04 383.022 63.52C382.446 64 381.726 64.24 380.862 64.24C379.998 64.24 379.278 64 378.702 63.52C378.158 63.04 377.886 62.336 377.886 61.408V32.752C377.886 31.824 378.158 31.12 378.702 30.64C379.278 30.16 379.998 29.92 380.862 29.92C381.726 29.92 382.446 30.16 383.022 30.64C383.598 31.12 383.886 31.824 383.886 32.752V50.8L394.158 40.96C394.734 40.384 395.39 40.096 396.126 40.096C396.862 40.096 397.502 40.368 398.046 40.912C398.59 41.456 398.862 42.096 398.862 42.832C398.862 43.568 398.558 44.24 397.95 44.848L390.414 51.856L398.766 59.344ZM421.868 57.568C422.412 57.568 422.844 57.776 423.164 58.192C423.516 58.608 423.692 59.168 423.692 59.872C423.692 60.864 423.1 61.696 421.916 62.368C420.828 62.976 419.596 63.472 418.22 63.856C416.844 64.208 415.532 64.384 414.284 64.384C410.508 64.384 407.516 63.296 405.308 61.12C403.1 58.944 401.996 55.968 401.996 52.192C401.996 49.792 402.476 47.664 403.436 45.808C404.396 43.952 405.74 42.512 407.468 41.488C409.228 40.464 411.212 39.952 413.42 39.952C415.532 39.952 417.372 40.416 418.94 41.344C420.508 42.272 421.724 43.584 422.588 45.28C423.452 46.976 423.884 48.976 423.884 51.28C423.884 52.656 423.276 53.344 422.06 53.344H407.9C408.092 55.552 408.716 57.184 409.772 58.24C410.828 59.264 412.364 59.776 414.38 59.776C415.404 59.776 416.3 59.648 417.068 59.392C417.868 59.136 418.764 58.784 419.756 58.336C420.716 57.824 421.42 57.568 421.868 57.568ZM413.564 44.176C411.932 44.176 410.62 44.688 409.628 45.712C408.668 46.736 408.092 48.208 407.9 50.128H418.748C418.684 48.176 418.204 46.704 417.308 45.712C416.412 44.688 415.164 44.176 413.564 44.176ZM441.896 40.048C442.728 39.984 443.384 40.16 443.864 40.576C444.344 40.992 444.584 41.616 444.584 42.448C444.584 43.312 444.376 43.952 443.96 44.368C443.544 44.784 442.792 45.056 441.704 45.184L440.264 45.328C438.376 45.52 436.984 46.16 436.088 47.248C435.224 48.336 434.792 49.696 434.792 51.328V61.408C434.792 62.336 434.504 63.056 433.928 63.568C433.352 64.048 432.632 64.288 431.768 64.288C430.904 64.288 430.184 64.048 429.608 63.568C429.064 63.056 428.792 62.336 428.792 61.408V42.832C428.792 41.936 429.064 41.248 429.608 40.768C430.184 40.288 430.888 40.048 431.72 40.048C432.552 40.048 433.224 40.288 433.736 40.768C434.248 41.216 434.504 41.872 434.504 42.736V44.656C435.112 43.248 436.008 42.16 437.192 41.392C438.408 40.624 439.752 40.192 441.224 40.096L441.896 40.048Z" fill="white"/>
<g clip-path="url(#clip0)">
<path d="M43.0147 85.9996C60.4003 85.9996 76.0748 75.5267 82.7279 59.4646C89.3811 43.4018 85.7035 24.9131 73.41 12.6196C56.628 -4.19493 29.3888 -4.20824 12.5905 12.59C-4.20843 29.3882 -4.19511 56.6274 12.6201 73.4094C20.6634 81.497 31.6082 86.0306 43.0147 85.9996ZM13.3385 44.53C13.6825 51.3563 16.3791 57.8533 20.9689 62.9173L13.7262 70.1601C7.22171 63.1689 3.44717 54.0721 3.09206 44.53H13.3385ZM23.1122 65.0606C28.1762 69.6504 34.6733 72.3463 41.4995 72.691V82.9367C31.9567 82.5809 22.8606 78.8063 15.8694 72.3019L23.1122 65.0606ZM44.5298 72.691C51.3997 72.3441 57.9345 69.6164 63.0111 64.9755L70.2532 72.2168C63.2501 78.773 54.1156 82.5801 44.5298 82.9375V72.691ZM65.144 62.8226C69.6842 57.7719 72.3491 51.3126 72.6909 44.53H82.9373C82.5837 54.0292 78.8409 63.0882 72.3883 70.0676L65.144 62.8226ZM72.6909 41.4997C72.3468 34.6734 69.6502 28.1764 65.0597 23.1124L72.3032 15.8688C78.8084 22.8601 82.5829 31.9568 82.9388 41.4997H72.6909ZM62.9172 20.9699C57.8531 16.3793 51.3561 13.6827 44.5298 13.3379V3.09076C54.0727 3.44662 63.1694 7.22115 70.1607 13.7256L62.9172 20.9699ZM41.4995 13.3379C34.7162 13.6805 28.2576 16.3453 23.2069 20.8855L15.9619 13.6405C22.9413 7.18712 32.0003 3.44514 41.4995 3.09076V13.3379ZM43.0147 16.3305C57.7288 16.3297 69.6998 28.3007 69.6998 43.0149C69.6998 57.729 57.7288 69.6992 43.0147 69.6992C28.3005 69.6992 16.3288 57.7298 16.3288 43.0149C16.3288 28.2999 28.3012 16.3297 43.0147 16.3297V16.3305ZM13.8127 15.7764L21.054 23.0184C16.4132 28.095 13.6847 34.6298 13.3385 41.4997H3.0928C3.44939 31.9139 7.25648 22.7794 13.8127 15.7764Z" fill="white"/>
<path d="M35.0413 52.5185C36.6623 52.5215 38.2499 52.065 39.6215 51.2009C39.7207 51.7062 39.7665 52.2204 39.7569 52.7353C39.7569 54.4946 38.992 56.3737 36.8443 56.3737C35.9831 56.3737 35.2855 57.0713 35.2855 57.9325C35.2855 58.7936 35.9831 59.4913 36.8443 59.4913H49.1844C50.044 59.4913 50.7417 58.7944 50.7417 57.9347C50.7417 57.0743 50.044 56.3774 49.1844 56.3774C47.0367 56.3774 46.2717 54.4968 46.2717 52.7368C46.2621 52.2218 46.308 51.7069 46.4079 51.2009C49.4441 53.1044 53.3421 52.9313 56.1978 50.7659C59.0535 48.6005 60.272 44.894 59.2584 41.4561C58.2449 38.0182 55.2109 35.5657 51.6369 35.2956C51.6369 35.2727 51.6369 35.249 51.6369 35.2261C51.6369 30.4632 47.7765 26.6028 43.0136 26.6028C38.2514 26.6028 34.391 30.4632 34.391 35.2261V35.2956C29.7672 35.6448 26.2472 39.5866 26.4225 44.22C26.5971 48.8527 30.4042 52.5185 35.0406 52.5178L35.0413 52.5185ZM35.0413 38.3022C35.3195 38.3022 35.5977 38.323 35.8729 38.3644C36.3708 38.4384 36.8724 38.2615 37.2127 37.8909C37.553 37.521 37.6877 37.0061 37.5715 36.5163C37.0396 34.2673 37.9451 31.9228 39.8516 30.6156C41.7574 29.3083 44.2713 29.3083 46.177 30.6156C48.0835 31.9228 48.9891 34.2673 48.4571 36.5163C48.341 37.0061 48.4756 37.521 48.816 37.8909C49.1563 38.2615 49.6579 38.4384 50.1558 38.3644C52.2302 38.0522 54.3046 38.9274 55.529 40.6312C56.7527 42.335 56.9214 44.5803 55.964 46.4469C55.0075 48.3134 53.0862 49.4875 50.988 49.4882C49.5262 49.4905 48.122 48.9171 47.0803 47.891C46.541 47.3642 45.6962 47.3132 45.0984 47.7719C44.8121 47.9916 44.5568 48.2476 44.3386 48.5346C43.5914 49.5178 43.2429 50.8532 43.2429 52.7375C43.22 54.0344 43.527 55.3165 44.1359 56.4617H41.892C42.5024 55.3158 42.8101 54.0337 42.7879 52.736C42.7879 50.8517 42.4395 49.5163 41.6915 48.5331C41.4733 48.2468 41.2181 47.9908 40.9325 47.7719C40.334 47.3124 39.4891 47.3635 38.9505 47.891C37.1469 49.6554 34.3851 49.9928 32.2093 48.7151C30.0335 47.4375 28.983 44.8607 29.6459 42.426C30.308 39.992 32.5186 38.3022 35.0413 38.3022Z" fill="white"/>
</g>
<defs>
<clipPath id="clip0">
<rect width="86" height="86" fill="white"/>
</clipPath>
</defs>
</svg>
