<?xml version="1.0" encoding="iso-8859-1"?>
<!-- Generator: Adobe Illustrator 18.0.0, SVG Export Plug-In . SVG Version: 6.00 Build 0)  -->
<!DOCTYPE svg PUBLIC "-//W3C//DTD SVG 1.1//EN" "http://www.w3.org/Graphics/SVG/1.1/DTD/svg11.dtd">
<svg version="1.1" id="Capa_1" xmlns="http://www.w3.org/2000/svg" xmlns:xlink="http://www.w3.org/1999/xlink" x="0px" y="0px"
	 viewBox="0 0 452.307 452.307" style="enable-background:new 0 0 452.307 452.307;" xml:space="preserve">
<g>
	<path d="M337.029,129.905h-43.978c-12.694,0-25.607,2.427-38.382,7.212c-9.105,3.411-18.7,5.141-28.517,5.141
		c-9.817,0-19.411-1.729-28.517-5.141c-12.774-4.786-25.688-7.212-38.382-7.212h-43.977c-53.072,0-96.249,43.177-96.249,96.249
		s43.177,96.249,96.249,96.249h221.752c53.071,0,96.248-43.177,96.248-96.249C433.277,173.082,390.101,129.905,337.029,129.905z
		 M425.277,226.154c0,6.906-0.799,13.629-2.307,20.083l-52.619-12.025c0.547-2.622,0.835-5.317,0.835-8.058
		c0-11.668-5.046-21.946-12.086-29.023l29.154-42.797C410.651,170.355,425.277,196.578,425.277,226.154z M381.54,149.98
		l-28.659,42.07c-4.811-3.148-10.046-4.934-15.022-4.934l-49.59,0l9.156-49.212h39.604
		C353.253,137.905,368.464,142.31,381.54,149.98z M226.153,150.258c10.778,0,21.316-1.901,31.323-5.649
		c10.602-3.972,21.277-6.182,31.794-6.613l-9.747,52.39c-0.218,1.168,0.097,2.374,0.856,3.288s1.888,1.443,3.076,1.443l54.402,0
		c11.472,0,25.327,13.845,25.327,31.037c0,8.293-3.228,16.088-9.088,21.949c-5.86,5.86-13.655,9.088-21.949,9.088H120.153
		c-17.114,0-31.037-13.923-31.037-31.037c0-8.293,3.228-16.088,9.088-21.949c5.437-5.436,13.095-9.088,19.056-9.088l52.125,0
		c1.189,0,2.316-0.529,3.076-1.443c0.76-0.914,1.074-2.12,0.856-3.288l-9.745-52.377c10.343,0.484,20.837,2.696,31.257,6.6
		C204.836,148.357,215.375,150.258,226.153,150.258z M127.575,265.191h94.578v49.211H119.945L127.575,265.191z M230.153,265.191
		h95.412l7.63,49.211H230.153V265.191z M155.416,137.905l9.156,49.212l-47.312,0c-5.305,0-11.313,1.95-16.783,5.253l-29.116-42.741
		c12.941-7.455,27.939-11.723,43.916-11.723H155.416z M64.617,153.937l29.426,43.197c-0.51,0.46-1.011,0.929-1.496,1.414
		c-7.372,7.372-11.431,17.176-11.431,27.606c0,2.826,0.309,5.581,0.883,8.239L29.38,246.417c-1.535-6.509-2.351-13.293-2.351-20.264
		C27.029,196.33,41.901,169.919,64.617,153.937z M31.574,254.122l52.928-12.096c6.008,13.441,19.393,22.882,34.98,23.147
		l-7.621,49.156C74.461,312.898,42.952,288.086,31.574,254.122z M341.275,314.298l-7.619-49.144
		c9.865-0.372,19.083-4.379,26.098-11.395c3.486-3.486,6.22-7.52,8.146-11.902l52.89,12.087
		C409.546,287.748,378.376,312.532,341.275,314.298z"/>
	<path d="M337.263,111.11h-74.512c-0.771,0-1.527,0.223-2.175,0.643c-10.268,6.653-22.171,10.169-34.423,10.169
		c-12.252,0-24.156-3.516-34.423-10.169c-0.648-0.42-1.403-0.643-2.175-0.643h-74.512C51.608,111.11,0,162.718,0,226.154
		c0,63.435,51.608,115.043,115.043,115.043h222.219c63.436,0,115.044-51.608,115.044-115.044
		C452.307,162.718,400.698,111.11,337.263,111.11z M337.263,333.197H115.043C56.02,333.197,8,285.177,8,226.153
		C8,167.129,56.02,119.11,115.043,119.11h73.348c11.333,7.078,24.362,10.812,37.762,10.812c13.399,0,26.429-3.734,37.762-10.812
		h73.348c59.024,0,107.044,48.02,107.044,107.044C444.307,285.177,396.287,333.197,337.263,333.197z"/>
</g>
<g>
</g>
<g>
</g>
<g>
</g>
<g>
</g>
<g>
</g>
<g>
</g>
<g>
</g>
<g>
</g>
<g>
</g>
<g>
</g>
<g>
</g>
<g>
</g>
<g>
</g>
<g>
</g>
<g>
</g>
</svg>
